<svg width="70" height="70" viewBox="0 0 70 70" fill="none" xmlns="http://www.w3.org/2000/svg">
<g clip-path="url(#clip0_204_191)">
<path d="M61.979 70H8.02101C3.59634 70 0 66.4036 0 61.979V13.854C0 9.42931 3.59634 5.8335 8.02101 5.8335H61.979C66.4037 5.8335 70 9.42931 70 13.854V61.979C70 66.4036 66.4037 70 61.979 70ZM8.02101 10.2085C6.01135 10.2085 4.375 11.8443 4.375 13.854V61.979C4.375 63.9886 6.01135 65.625 8.02101 65.625H61.979C63.9886 65.625 65.625 63.9886 65.625 61.979V13.854C65.625 11.8443 63.9886 10.2085 61.979 10.2085H8.02101Z" fill="url(#paint0_linear_204_191)"/>
<path d="M67.8125 27.7085H2.1875C0.979996 27.7085 0 26.7285 0 25.521C0 24.3135 0.979996 23.3335 2.1875 23.3335H67.8125C69.02 23.3335 70 24.3135 70 25.521C70 26.7285 69.02 27.7085 67.8125 27.7085Z" fill="url(#paint1_linear_204_191)"/>
<path d="M16.771 17.5C15.5635 17.5 14.5835 16.52 14.5835 15.3125V2.1875C14.5835 0.979996 15.5635 0 16.771 0C17.9785 0 18.9585 0.979996 18.9585 2.1875V15.3125C18.9585 16.52 17.9785 17.5 16.771 17.5Z" fill="url(#paint2_linear_204_191)"/>
<path d="M53.229 17.5C52.0215 17.5 51.0415 16.52 51.0415 15.3125V2.1875C51.0415 0.979996 52.0215 0 53.229 0C54.4365 0 55.4165 0.979996 55.4165 2.1875V15.3125C55.4165 16.52 54.4365 17.5 53.229 17.5Z" fill="url(#paint3_linear_204_191)"/>
</g>
<defs>
<linearGradient id="paint0_linear_204_191" x1="35" y1="5.8335" x2="35" y2="70" gradientUnits="userSpaceOnUse">
<stop stop-color="#8E80F9"/>
<stop offset="1" stop-color="#BE7BF6"/>
</linearGradient>
<linearGradient id="paint1_linear_204_191" x1="62.4509" y1="15.0979" x2="-7.34447e-05" y2="72.0587" gradientUnits="userSpaceOnUse">
<stop stop-color="#8E80F9"/>
<stop offset="1" stop-color="#BE7BF6"/>
</linearGradient>
<linearGradient id="paint2_linear_204_191" x1="16.771" y1="0" x2="16.771" y2="17.5" gradientUnits="userSpaceOnUse">
<stop stop-color="#8E80F9"/>
<stop offset="1" stop-color="#BE7BF6"/>
</linearGradient>
<linearGradient id="paint3_linear_204_191" x1="53.229" y1="0" x2="53.229" y2="17.5" gradientUnits="userSpaceOnUse">
<stop stop-color="#8E80F9"/>
<stop offset="1" stop-color="#BE7BF6"/>
</linearGradient>
<clipPath id="clip0_204_191">
<rect width="70" height="70" fill="white"/>
</clipPath>
</defs>
</svg>
