<svg width="70" height="70" viewBox="0 0 70 70" fill="none" xmlns="http://www.w3.org/2000/svg">
<path d="M55.5078 41.1523C47.8833 41.1523 41.6292 47.1275 41.1793 54.6409L37.0508 58.8381V39.7888L38.5939 38.4368C48.799 29.4945 57.5185 23.8848 57.5185 13.7796C57.5185 6.11297 52.7376 0 45.2364 0C40.9932 0 37.2169 2.18641 35 5.52412C32.7831 2.18641 29.0068 0 24.7636 0C17.2502 0 12.4815 6.12773 12.4815 13.7797C12.4815 23.8964 21.2215 29.5124 31.4062 38.4371L32.9492 39.789V50.5568L28.82 46.4276C28.3653 38.919 22.1133 32.9492 14.4922 32.9492H12.4414V35C12.4414 42.6211 18.4111 48.8731 25.9198 49.3279L32.9492 56.3572V65.8984H20.6445V70C26.5923 70 43.3434 70 49.3555 70V65.8984H37.0508V64.6872L44.0904 57.5303C51.5942 57.0705 57.5586 50.8207 57.5586 43.2031V41.1523H55.5078ZM16.8063 37.3141C20.6058 38.1937 23.6031 41.191 24.4828 44.9906C20.6832 44.1109 17.6859 41.1137 16.8063 37.3141ZM35.8909 35.3521L35 36.1326L34.1091 35.3522C23.6525 26.1887 16.583 21.6852 16.583 13.7797C16.583 8.96246 19.1126 4.10156 24.7636 4.10156C29.0876 4.10156 32.6848 7.5198 32.953 11.8836H37.0468C37.3151 7.5198 40.9123 4.10156 45.2363 4.10156C50.8873 4.10156 53.4168 8.96246 53.4168 13.7797C53.4168 21.6748 46.4293 26.1171 35.8909 35.3521ZM45.5172 53.1937C46.3969 49.3942 49.3942 46.3969 53.1937 45.5172C52.3139 49.3168 49.3168 52.3141 45.5172 53.1937Z" fill="url(#paint0_linear_204_164)"/>
<defs>
<linearGradient id="paint0_linear_204_164" x1="50.7143" y1="9.52381" x2="20" y2="80.4762" gradientUnits="userSpaceOnUse">
<stop stop-color="#8E80F9"/>
<stop offset="1" stop-color="#BE7BF6"/>
</linearGradient>
</defs>
</svg>
