<svg width="70" height="70" viewBox="0 0 70 70" fill="none" xmlns="http://www.w3.org/2000/svg">
<path d="M39.4516 8.31057V2.91671H43.808V0H32.1784V2.91671H36.5349V8.33714C33.3127 8.51686 30.1679 9.19114 27.1639 10.3529C26.4127 10.6433 26.0394 11.4879 26.3301 12.2391C26.6214 12.991 27.4659 13.3656 28.2164 13.0729C31.425 11.8326 34.8131 11.203 38.2867 11.203C53.6931 11.203 66.2271 23.737 66.2271 39.1436C66.2271 54.5494 53.693 67.0833 38.2867 67.0833C23.9514 67.0833 12.1049 56.2301 10.5274 42.3096L18.6953 49.0491C19.3163 49.5617 20.2356 49.4736 20.7481 48.8519C21.2609 48.2309 21.1726 47.3117 20.551 46.799L9.82572 37.9493C9.44972 37.5897 8.27486 37.2671 7.61329 38.3844L1.03429 50.6351C0.65329 51.345 0.898147 52.2713 1.62886 52.6097C2.56015 53.041 3.34072 52.505 3.60343 52.0151L7.83572 44.1343C10.2284 58.7836 22.9713 70 38.2866 70C55.301 70 69.1437 56.1579 69.1437 39.1436C69.1439 22.5194 55.928 8.92557 39.4516 8.31057Z" fill="url(#paint0_linear_1389_329)"/>
<path d="M38.2866 32.4572C34.6002 32.4572 31.6009 35.4564 31.6009 39.1436C31.6009 42.83 34.6002 45.8293 38.2866 45.8293C39.1674 45.8293 40.0083 45.6564 40.7792 45.3454L50.7602 56.4552C51.2977 57.0539 52.2184 57.1046 52.8194 56.5649C53.4183 56.0272 53.4674 55.105 52.9292 54.5054L43.1979 43.6739C44.2984 42.4817 44.9723 40.8902 44.9723 39.1437C44.9723 35.4564 41.973 32.4572 38.2866 32.4572ZM38.2866 42.9126C36.208 42.9126 34.5176 41.2222 34.5176 39.1436C34.5176 37.065 36.208 35.3739 38.2866 35.3739C40.3652 35.3739 42.0556 37.065 42.0556 39.1436C42.0557 41.2222 40.3652 42.9126 38.2866 42.9126Z" fill="url(#paint1_linear_1389_329)"/>
<defs>
<linearGradient id="paint0_linear_1389_329" x1="62.5" y1="1.35715" x2="16.0714" y2="68.7857" gradientUnits="userSpaceOnUse">
<stop stop-color="#8E80F9"/>
<stop offset="1" stop-color="#BE7BF6"/>
</linearGradient>
<linearGradient id="paint1_linear_1389_329" x1="51.1914" y1="32.9318" x2="34.4577" y2="55.015" gradientUnits="userSpaceOnUse">
<stop stop-color="#8E80F9"/>
<stop offset="1" stop-color="#BE7BF6"/>
</linearGradient>
</defs>
</svg>
