<svg width="70" height="70" viewBox="0 0 70 70" fill="none" xmlns="http://www.w3.org/2000/svg">
<path d="M60.2587 16.206L45.4543 1.40178C44.5505 0.497793 43.3489 0 42.0705 0H13.125C10.4865 0 8.33984 2.14662 8.33984 4.78516V65.2148C8.33984 67.8534 10.4865 70 13.125 70H56.875C59.5135 70 61.6602 67.8534 61.6602 65.2148V19.5896C61.6602 18.3117 61.1625 17.1101 60.2587 16.206ZM54.6584 16.4062H45.9375C45.5606 16.4062 45.2539 16.0996 45.2539 15.7227V7.00191L54.6584 16.4062ZM56.875 65.8984H13.125C12.7481 65.8984 12.4414 65.5918 12.4414 65.2148V4.78516C12.4414 4.40822 12.7481 4.10156 13.125 4.10156H41.1523V15.7227C41.1523 18.3612 43.299 20.5078 45.9375 20.5078H57.5586V65.2148C57.5586 65.5918 57.2519 65.8984 56.875 65.8984Z" fill="url(#paint0_linear_204_183)"/>
<path d="M37.2012 31.3086H50.2675C51.4001 31.3086 52.3183 30.3904 52.3183 29.2578C52.3183 28.1252 51.4001 27.207 50.2675 27.207H37.2012C36.0686 27.207 35.1504 28.1252 35.1504 29.2578C35.1504 30.3904 36.0685 31.3086 37.2012 31.3086Z" fill="url(#paint1_linear_204_183)"/>
<path d="M37.2012 44.9805H50.2675C51.4001 44.9805 52.3183 44.0623 52.3183 42.9297C52.3183 41.7971 51.4001 40.8789 50.2675 40.8789H37.2012C36.0686 40.8789 35.1504 41.7971 35.1504 42.9297C35.1504 44.0623 36.0685 44.9805 37.2012 44.9805Z" fill="url(#paint2_linear_204_183)"/>
<path d="M50.3262 54.5508H37.2012C36.0686 54.5508 35.1504 55.469 35.1504 56.6016C35.1504 57.7341 36.0686 58.6523 37.2012 58.6523H50.3262C51.4588 58.6523 52.377 57.7341 52.377 56.6016C52.377 55.469 51.4588 54.5508 50.3262 54.5508Z" fill="url(#paint3_linear_204_183)"/>
<path d="M26.9686 23.6738L22.2392 28.403L21.124 27.2878C20.3232 26.4869 19.0247 26.4869 18.2238 27.2878C17.4229 28.0887 17.4229 29.3871 18.2238 30.188L20.7892 32.7534C21.1896 33.1539 21.7145 33.3542 22.2392 33.3542C22.764 33.3542 23.289 33.154 23.6893 32.7534L29.8687 26.574C30.6696 25.7731 30.6696 24.4747 29.8687 23.6738C29.0679 22.8729 27.7694 22.8729 26.9686 23.6738Z" fill="url(#paint4_linear_204_183)"/>
<path d="M26.9686 38.3899L22.2392 43.1192L21.124 42.004C20.3232 41.2033 19.0247 41.2031 18.2238 42.004C17.4229 42.8049 17.4229 44.1033 18.2238 44.9042L20.7892 47.4695C21.1896 47.8699 21.7145 48.0701 22.2392 48.0701C22.764 48.0701 23.289 47.8699 23.6893 47.4694L29.8687 41.29C30.6696 40.4891 30.6696 39.1906 29.8687 38.3897C29.0679 37.589 27.7694 37.589 26.9686 38.3899Z" fill="url(#paint5_linear_204_183)"/>
<path d="M26.9686 52.0618L22.2392 56.7911L21.124 55.6759C20.3232 54.8751 19.0247 54.875 18.2238 55.6759C17.4229 56.4768 17.4229 57.7752 18.2238 58.5761L20.7892 61.1414C21.1896 61.5418 21.7145 61.742 22.2392 61.742C22.764 61.742 23.289 61.5418 23.6893 61.1412L29.8687 54.9618C30.6696 54.1609 30.6696 52.8625 29.8687 52.0616C29.0679 51.2609 27.7694 51.2609 26.9686 52.0618Z" fill="url(#paint6_linear_204_183)"/>
<defs>
<linearGradient id="paint0_linear_204_183" x1="51.009" y1="9.88789" x2="16.6368" y2="72.0404" gradientUnits="userSpaceOnUse">
<stop stop-color="#8E80F9"/>
<stop offset="1" stop-color="#BE7BF6"/>
</linearGradient>
<linearGradient id="paint1_linear_204_183" x1="43.7344" y1="27.207" x2="43.7344" y2="31.3086" gradientUnits="userSpaceOnUse">
<stop stop-color="#8E80F9"/>
<stop offset="1" stop-color="#BE7BF6"/>
</linearGradient>
<linearGradient id="paint2_linear_204_183" x1="43.7344" y1="40.8789" x2="43.7344" y2="44.9805" gradientUnits="userSpaceOnUse">
<stop stop-color="#8E80F9"/>
<stop offset="1" stop-color="#BE7BF6"/>
</linearGradient>
<linearGradient id="paint3_linear_204_183" x1="43.7637" y1="54.5508" x2="43.7637" y2="58.6523" gradientUnits="userSpaceOnUse">
<stop stop-color="#8E80F9"/>
<stop offset="1" stop-color="#BE7BF6"/>
</linearGradient>
<linearGradient id="paint4_linear_204_183" x1="24.0462" y1="23.0731" x2="24.0462" y2="33.3542" gradientUnits="userSpaceOnUse">
<stop stop-color="#8E80F9"/>
<stop offset="1" stop-color="#BE7BF6"/>
</linearGradient>
<linearGradient id="paint5_linear_204_183" x1="24.0462" y1="37.7892" x2="24.0462" y2="48.0701" gradientUnits="userSpaceOnUse">
<stop stop-color="#8E80F9"/>
<stop offset="1" stop-color="#BE7BF6"/>
</linearGradient>
<linearGradient id="paint6_linear_204_183" x1="24.0462" y1="51.4611" x2="24.0462" y2="61.742" gradientUnits="userSpaceOnUse">
<stop stop-color="#8E80F9"/>
<stop offset="1" stop-color="#BE7BF6"/>
</linearGradient>
</defs>
</svg>
